<svg width="51" height="51" viewBox="0 0 51 51" fill="none" xmlns="http://www.w3.org/2000/svg">
<rect x="8.36737" y="10.4021" width="36.2282" height="31.25" fill="#FFFAF3"/>
<path d="M24.0767 0.402344H27.6374C31.4483 0.402344 35.784 1.98231 40.6445 5.14226C44.3101 8.01051 46.9665 11.3244 48.6136 15.0839C50.0992 18.6652 50.842 21.6874 50.842 24.1505V26.2166C50.842 31.7587 48.5732 37.2521 44.0356 42.6969C38.7714 47.8339 32.6594 50.4023 25.6996 50.4023C17.012 50.4023 9.91496 46.343 4.40851 38.2244C2.0509 33.8491 0.872101 29.5467 0.872101 25.3173C0.872101 18.3492 3.73029 12.0698 9.44667 6.47916C14.7755 2.42795 19.6522 0.402344 24.0767 0.402344ZM12.5471 22.0601V29.7898C12.5471 34.0031 13.8793 36.8146 16.5437 38.2244C17.7387 38.905 21.5819 39.1562 28.0733 38.9779C33.0469 38.9779 35.9051 38.4351 36.6479 37.3494C38.3273 36.0044 39.167 33.7762 39.167 30.6649V20.7232C39.167 16.8016 37.7864 14.2332 35.0251 13.0178L33.1842 12.4101L31.3191 12.2643H20.5403C16.6971 12.2643 14.1296 14.144 12.8377 17.9036C12.644 19.0541 12.5471 20.4396 12.5471 22.0601ZM20.9763 14.6464H31.3191C35.0654 14.6464 36.9386 16.6234 36.9386 20.5774V31.1024C36.438 34.7647 34.912 36.5958 32.3606 36.5958H28.0733C26.071 36.5958 23.9556 36.6444 21.7272 36.7417C18.0132 36.7417 15.8413 35.5587 15.2115 33.1928C15.0177 31.8802 14.9208 29.9032 14.9208 27.2618V23.9804C14.9208 19.0379 15.3165 16.5667 16.1077 16.5667C16.899 15.2865 18.5218 14.6464 20.9763 14.6464ZM31.4644 18.6571C31.9004 19.6456 32.4494 20.1398 33.1115 20.1398C33.7736 20.1398 34.3145 19.6456 34.7344 18.6571C34.5083 17.4579 33.9108 16.8583 32.942 16.8583C31.9569 17.1662 31.4644 17.7658 31.4644 18.6571ZM19.0628 25.7791C19.0628 28.9715 20.8875 31.1915 24.5369 32.4393H27.492C31.0284 31.1591 32.7966 28.8904 32.7966 25.6333V25.3173C32.7966 23.4699 31.86 21.7441 29.9869 20.1398C28.7112 19.2486 27.3871 18.8029 26.0145 18.8029H25.8692C22.8172 18.8029 20.6937 20.3829 19.4988 23.5428C19.3373 23.7535 19.192 24.4989 19.0628 25.7791ZM25.8692 21.1607H26.0145C28.146 21.1607 29.5751 22.3032 30.3018 24.5881C30.3987 24.7177 30.4471 25.0661 30.4471 25.6333C29.9788 28.696 28.5013 30.2273 26.0145 30.2273C24.0444 30.2273 22.6153 29.2388 21.7272 27.2618C21.598 27.0998 21.4931 26.6056 21.4123 25.7791C21.7676 22.7002 23.2532 21.1607 25.8692 21.1607Z" fill="#FFA033"/>
</svg>
