<svg width="50" height="50" viewBox="0 0 50 50" fill="none" xmlns="http://www.w3.org/2000/svg">
<rect width="50" height="50" rx="25" fill="#FFA033"/>
<path d="M19.5 35H15.25V21.625H19.5V35ZM17.375 19.75C16 19.75 15 18.75 15 17.375C15 16 16.125 15 17.375 15C18.75 15 19.75 16 19.75 17.375C19.75 18.75 18.75 19.75 17.375 19.75ZM35 35H30.75V27.75C30.75 25.625 29.875 25 28.625 25C27.375 25 26.125 26 26.125 27.875V35H21.875V21.625H25.875V23.5C26.25 22.625 27.75 21.25 29.875 21.25C32.25 21.25 34.75 22.625 34.75 26.75V35H35Z" fill="white"/>
</svg>
